<svg width="24" height="24" viewBox="0 0 24 24" fill="none" xmlns="http://www.w3.org/2000/svg">
<path d="M15.364 5.92608H20.8537V7.27615H15.364V5.92608ZM9.86329 11.2678C11.0768 10.6792 11.7124 9.78382 11.7124 8.40028C11.7124 5.66388 9.70369 5 7.38399 5H1V18.735H7.56285C10.0229 18.735 12.3316 17.5356 12.3316 14.7462C12.3316 13.0223 11.5281 11.7476 9.86329 11.2678V11.2678ZM3.97736 7.3431H6.77036C7.84628 7.3431 8.81213 7.64714 8.81213 8.91353C8.81213 10.0795 8.06091 10.5481 6.996 10.5481H3.97736V7.3431ZM7.1556 16.4031H3.97461V12.6206H7.21889C8.52871 12.6206 9.35697 13.1757 9.35697 14.5816C9.35697 15.9651 8.36911 16.4031 7.1556 16.4031V16.4031ZM23 13.9066C23 10.9637 21.3022 8.51185 18.2313 8.51185C15.2457 8.51185 13.2149 10.7908 13.2149 13.7782C13.2149 16.8745 15.1383 19 18.2313 19C20.573 19 22.0892 17.9317 22.8184 15.6527H20.4437C20.185 16.5035 19.1338 16.9498 18.3166 16.9498C16.7371 16.9498 15.9116 16.0126 15.9116 14.4198H22.9807C22.989 14.2552 23 14.0823 23 13.9066V13.9066ZM15.9116 12.696C15.9969 11.3877 16.8582 10.5704 18.146 10.5704C19.4998 10.5704 20.1767 11.3766 20.2951 12.696H15.9116Z" fill="#9595A4"/>
</svg>
